<?xml version="1.0" encoding="iso-8859-1"?>
<!-- Uploaded to: SVG Repo, www.svgrepo.com, Generator: SVG Repo Mixer Tools -->
<svg height="800px" width="800px" version="1.1" id="Layer_1" xmlns="http://www.w3.org/2000/svg" xmlns:xlink="http://www.w3.org/1999/xlink" 
	 viewBox="0 0 512 512" xml:space="preserve">
<g transform="translate(1)">
	<g>
		<polygon style="fill:#FFE100;" points="408.6,166.4 459.8,166.4 459.8,115.2 408.6,115.2 		"/>
		<path style="fill:#FFE100;" d="M502.467,413.867H7.533c-5.12,0-8.533-3.413-8.533-8.533c0-5.12,3.413-8.533,8.533-8.533h494.933
			c5.12,0,8.533,3.413,8.533,8.533C511,410.453,507.587,413.867,502.467,413.867z"/>
		<path style="fill:#FFE100;" d="M50.2,209.067c-2.56,0-5.12-0.853-6.827-3.413c-2.56-3.413-1.707-9.387,1.707-11.947
			c31.573-23.893,70.827-27.307,110.933-9.387c4.267,1.707,5.973,6.827,4.267,11.093c-1.707,4.267-6.827,5.973-11.093,4.267
			c-34.133-15.36-66.56-12.8-93.867,7.68C53.613,208.213,51.907,209.067,50.2,209.067z"/>
		<path style="fill:#FFE100;" d="M323.267,166.4H152.6c-5.12,0-8.533-3.413-8.533-8.533c0-5.12,3.413-8.533,8.533-8.533h170.667
			c5.12,0,8.533,3.413,8.533,8.533C331.8,162.987,328.387,166.4,323.267,166.4z"/>
		<path style="fill:#FFE100;" d="M169.667,166.4c-5.12,0-8.533-3.413-8.533-8.533V140.8c0-5.12,3.413-8.533,8.533-8.533
			c5.12,0,8.533,3.413,8.533,8.533v17.067C178.2,162.987,174.787,166.4,169.667,166.4z"/>
		<path style="fill:#FFE100;" d="M195.267,140.8h-51.2c-5.12,0-8.533-3.413-8.533-8.533c0-5.12,3.413-8.533,8.533-8.533h51.2
			c5.12,0,8.533,3.413,8.533,8.533C203.8,137.387,200.387,140.8,195.267,140.8z"/>
		<path style="fill:#FFE100;" d="M417.133,320c-4.267,0-7.68-2.56-8.533-6.827L383,186.027c-0.853-4.267,1.707-9.387,6.827-10.24
			s9.387,2.56,10.24,6.827l25.6,127.147c0.853,4.267-1.707,9.387-6.827,10.24C417.987,320,417.987,320,417.133,320z"/>
		<path style="fill:#FFE100;" d="M391.533,192.853c-0.853,0-1.707,0-3.413-0.853l-68.267-26.453
			c-4.267-1.707-6.827-6.827-5.12-11.093c1.707-4.267,6.827-6.827,11.093-5.12l68.267,26.453c4.267,1.707,6.827,6.827,5.12,11.093
			C398.36,191.147,394.947,192.853,391.533,192.853z"/>
		<path style="fill:#FFE100;" d="M263.533,320c-2.56,0-5.973-1.707-7.68-4.267l-93.867-153.6c-1.707-4.267-0.853-9.387,3.413-11.947
			s9.387-0.853,11.947,2.56l93.867,153.6c2.56,4.267,0.853,9.387-2.56,11.947C266.947,320,265.24,320,263.533,320z"/>
		<path style="fill:#FFE100;" d="M263.533,320c-1.707,0-3.413-0.853-5.12-1.707c-4.267-2.56-5.12-7.68-2.56-11.947l93.867-136.533
			c2.56-4.267,7.68-5.12,11.947-2.56s5.12,7.68,2.56,11.947L270.36,315.733C268.653,318.293,266.093,320,263.533,320z"/>
		<path style="fill:#FFE100;" d="M263.533,320h-153.6c-5.12,0-8.533-3.413-8.533-8.533c0-5.12,3.413-8.533,8.533-8.533h153.6
			c5.12,0,8.533,3.413,8.533,8.533C272.067,316.587,268.653,320,263.533,320z"/>
		<path style="fill:#FFE100;" d="M109.933,320c-0.853,0-1.707,0-3.413-0.853c-4.267-1.707-6.827-6.827-5.12-11.093l59.733-153.6
			c1.707-4.267,6.827-6.827,11.093-5.12s6.827,6.827,5.12,11.093l-59.733,153.6C116.76,318.293,113.347,320,109.933,320z"/>
		<path style="fill:#FFE100;" d="M109.933,413.867c-56.32,0-102.4-46.08-102.4-102.4s46.08-102.4,102.4-102.4
			s102.4,46.08,102.4,102.4S166.253,413.867,109.933,413.867z M109.933,226.133c-46.933,0-85.333,38.4-85.333,85.333
			S63,396.8,109.933,396.8s85.333-38.4,85.333-85.333S156.867,226.133,109.933,226.133z"/>
		<path style="fill:#FFE100;" d="M417.133,413.867c-56.32,0-102.4-46.08-102.4-102.4s46.08-102.4,102.4-102.4
			c54.613,0,93.867,42.667,93.867,102.4S471.747,413.867,417.133,413.867z M417.133,226.133c-46.933,0-85.333,38.4-85.333,85.333
			s38.4,85.333,85.333,85.333c44.373,0,76.8-35.84,76.8-85.333S461.507,226.133,417.133,226.133z"/>
		<path style="fill:#FFE100;" d="M391.533,192c-5.12,0-8.533-3.413-8.533-8.533c0-33.28-26.453-59.733-59.733-59.733
			c-5.12,0-8.533-3.413-8.533-8.533c0-5.12,3.413-8.533,8.533-8.533c42.667,0,76.8,34.133,76.8,76.8
			C400.067,188.587,396.653,192,391.533,192z"/>
		<path style="fill:#FFE100;" d="M417.133,157.867H383c-5.12,0-8.533-3.413-8.533-8.533S377.88,140.8,383,140.8h34.133
			c5.12,0,8.533,3.413,8.533,8.533S422.253,157.867,417.133,157.867z"/>
		<path style="fill:#FFE100;" d="M109.933,320c-1.707,0-2.56,0-4.267-0.853l-76.8-42.667c-4.267-2.56-5.12-7.68-3.413-11.947
			c2.56-4.267,7.68-5.12,11.947-3.413l76.8,42.667c4.267,2.56,5.973,7.68,3.413,11.947C115.907,318.293,113.347,320,109.933,320z"/>
	</g>
	<path d="M41.667,200.533c-2.56,0-5.12-0.853-6.827-3.413c-2.56-3.413-1.707-9.387,1.707-11.947
		c31.573-23.893,70.827-27.307,110.933-9.387c4.267,1.707,5.973,6.827,4.267,11.093c-1.707,4.267-6.827,5.973-11.093,4.267
		c-34.133-15.36-66.56-12.8-93.867,7.68C45.08,199.68,43.373,200.533,41.667,200.533z"/>
	<path d="M314.733,157.867H144.067c-5.12,0-8.533-3.413-8.533-8.533s3.413-8.533,8.533-8.533h170.667
		c5.12,0,8.533,3.413,8.533,8.533S319.853,157.867,314.733,157.867z"/>
	<path d="M161.133,157.867c-5.12,0-8.533-3.413-8.533-8.533v-17.067c0-5.12,3.413-8.533,8.533-8.533c5.12,0,8.533,3.413,8.533,8.533
		v17.067C169.667,154.453,166.253,157.867,161.133,157.867z"/>
	<path d="M186.733,132.267h-51.2c-5.12,0-8.533-3.413-8.533-8.533s3.413-8.533,8.533-8.533h51.2c5.12,0,8.533,3.413,8.533,8.533
		S191.853,132.267,186.733,132.267z"/>
	<path d="M408.6,311.467c-4.267,0-7.68-2.56-8.533-6.827l-25.6-127.147c-0.853-4.267,1.707-9.387,6.827-10.24
		c5.12-0.853,9.387,2.56,10.24,6.827l25.6,127.147c0.853,4.267-1.707,9.387-6.827,10.24
		C409.453,311.467,409.453,311.467,408.6,311.467z"/>
	<path d="M383,184.32c-0.853,0-1.707,0-3.413-0.853l-68.267-26.453c-4.267-1.707-6.827-6.827-5.12-11.093s6.827-6.827,11.093-5.12
		l68.267,26.453c5.12,2.56,7.68,7.68,5.973,11.947C389.827,182.613,386.413,184.32,383,184.32z"/>
	<path d="M255,311.467c-2.56,0-5.973-1.707-7.68-4.267l-93.867-153.6c-1.707-4.267-0.853-9.387,3.413-11.947
		c4.267-2.56,9.387-0.853,11.947,2.56l93.867,153.6c2.56,4.267,0.853,9.387-2.56,11.947
		C258.413,311.467,256.707,311.467,255,311.467z"/>
	<path d="M255,311.467c-1.707,0-3.413-0.853-5.12-1.707c-4.267-2.56-5.12-7.68-2.56-11.947l93.867-136.533
		c2.56-4.267,7.68-5.12,11.947-2.56s5.12,7.68,2.56,11.947L261.827,307.2C260.12,309.76,257.56,311.467,255,311.467z"/>
	<path d="M255,311.467H101.4c-5.12,0-8.533-3.413-8.533-8.533s3.413-8.533,8.533-8.533H255c5.12,0,8.533,3.413,8.533,8.533
		S260.12,311.467,255,311.467z"/>
	<path d="M101.4,311.467c-0.853,0-1.707,0-3.413-0.853c-4.267-1.707-6.827-6.827-5.12-11.093l59.733-153.6
		c1.707-4.267,6.827-6.827,11.093-5.12c4.267,1.707,6.827,6.827,5.12,11.093l-59.733,153.6
		C108.227,309.76,104.813,311.467,101.4,311.467z"/>
	<path d="M101.4,405.333c-56.32,0-102.4-46.08-102.4-102.4s46.08-102.4,102.4-102.4s102.4,46.08,102.4,102.4
		S157.72,405.333,101.4,405.333z M101.4,217.6c-46.933,0-85.333,38.4-85.333,85.333s38.4,85.333,85.333,85.333
		s85.333-38.4,85.333-85.333S148.333,217.6,101.4,217.6z"/>
	<path d="M408.6,405.333c-56.32,0-102.4-46.08-102.4-102.4s46.08-102.4,102.4-102.4s102.4,46.08,102.4,102.4
		S464.92,405.333,408.6,405.333z M408.6,217.6c-46.933,0-85.333,38.4-85.333,85.333s38.4,85.333,85.333,85.333
		s85.333-38.4,85.333-85.333S455.533,217.6,408.6,217.6z"/>
	<path d="M383,183.467c-5.12,0-8.533-3.413-8.533-8.533c0-33.28-26.453-59.733-59.733-59.733c-5.12,0-8.533-3.413-8.533-8.533
		s3.413-8.533,8.533-8.533c42.667,0,76.8,34.133,76.8,76.8C391.533,180.053,388.12,183.467,383,183.467z"/>
	<path d="M502.467,405.333H7.533C2.413,405.333-1,401.92-1,396.8s3.413-8.533,8.533-8.533h494.933c5.12,0,8.533,3.413,8.533,8.533
		S507.587,405.333,502.467,405.333z"/>
	<path d="M502.467,405.333H340.333c-3.413,0-5.973-1.707-7.68-5.12c-1.707-2.56-0.853-5.973,0.853-8.533L495.64,178.347
		c2.56-2.56,5.973-4.267,9.387-2.56c3.413,0.853,5.973,4.267,5.973,7.68V396.8C511,401.92,507.587,405.333,502.467,405.333z
		 M357.4,388.267h136.533v-179.2L357.4,388.267z"/>
	<path d="M408.6,149.333h-34.133c-5.12,0-8.533-3.413-8.533-8.533c0-5.12,3.413-8.533,8.533-8.533H408.6
		c5.12,0,8.533,3.413,8.533,8.533C417.133,145.92,413.72,149.333,408.6,149.333z"/>
	<path d="M459.8,174.933h-51.2c-5.12,0-8.533-3.413-8.533-8.533v-51.2c0-5.12,3.413-8.533,8.533-8.533h51.2
		c5.12,0,8.533,3.413,8.533,8.533v51.2C468.333,171.52,464.92,174.933,459.8,174.933z M417.133,157.867h34.133v-34.133h-34.133
		V157.867z"/>
	<path d="M101.4,311.467c-1.707,0-2.56,0-4.267-0.853l-76.8-42.667c-4.267-2.56-5.12-7.68-3.413-11.947
		c2.56-4.267,7.68-5.12,11.947-3.413l76.8,42.667c4.267,2.56,5.973,7.68,3.413,11.947C107.373,309.76,104.813,311.467,101.4,311.467
		z"/>
</g>
</svg>