<svg width="26" height="26" viewBox="0 0 26 26" fill="none" xmlns="http://www.w3.org/2000/svg">
<path opacity="0.2" fill-rule="evenodd" clip-rule="evenodd" d="M13.5 26C20.404 26 26 20.404 26 13.5C26 6.596 20.404 1 13.5 1C6.596 1 1 6.596 1 13.5C1 20.404 6.596 26 13.5 26ZM13.5 24C19.299 24 24 19.299 24 13.5C24 7.701 19.299 3 13.5 3C7.701 3 3 7.701 3 13.5C3 19.299 7.701 24 13.5 24Z" fill="#F0CB35"/>
<path opacity="0.2" fill-rule="evenodd" clip-rule="evenodd" d="M8.00024 23C8.97457 23 9.91544 22.6445 10.6462 22.0001C11.377 21.3556 11.8474 20.4666 11.9692 19.5H13.7112C13.7897 19.5 13.8672 19.4815 13.9372 19.446C14.0072 19.4105 14.0679 19.3591 14.1144 19.2958C14.1608 19.2325 14.1917 19.1591 14.2045 19.0817C14.2174 19.0042 14.2118 18.9248 14.1882 18.85L14.1522 18.736L17.3662 13.323L17.8122 15.179C16.9001 15.4647 16.1204 16.0674 15.6141 16.8781C15.1078 17.6888 14.9084 18.654 15.0519 19.599C15.1955 20.5439 15.6725 21.4063 16.3967 22.0301C17.1209 22.654 18.0444 22.998 19.0002 23C20.0347 23.0011 21.0293 22.6015 21.7754 21.8849C22.5215 21.1684 22.9609 20.1907 23.0016 19.1571C23.0422 18.1234 22.6808 17.1143 21.9933 16.3414C21.3058 15.5685 20.3456 15.092 19.3142 15.012L17.4402 7.20095C18.5952 7.15795 19.4782 7.21095 20.0782 7.35195C20.6122 7.47795 20.7502 7.59495 20.7502 7.67795C20.7502 8.18895 20.5102 8.34795 19.5752 8.25395C19.3802 8.23931 19.1871 8.30147 19.0372 8.42717C18.8873 8.55287 18.7924 8.73217 18.7729 8.92682C18.7533 9.12147 18.8105 9.31607 18.9324 9.46909C19.0543 9.62212 19.2311 9.72147 19.4252 9.74595C21.1572 9.91995 22.2502 9.19695 22.2502 7.67795C22.2502 5.97395 20.2602 5.49595 16.5102 5.74795C16.4319 5.74825 16.3541 5.76004 16.2792 5.78295C15.9412 5.88495 15.6692 6.19895 15.7652 6.65195L15.7742 6.68895L16.9572 11.619H11.9252L11.3412 9.74995H12.5002C12.6992 9.74995 12.8899 9.67094 13.0306 9.53028C13.1712 9.38963 13.2502 9.19887 13.2502 8.99995C13.2502 8.80104 13.1712 8.61028 13.0306 8.46962C12.8899 8.32897 12.6992 8.24995 12.5002 8.24995H8.50024C8.30133 8.24995 8.11056 8.32897 7.96991 8.46962C7.82926 8.61028 7.75024 8.80104 7.75024 8.99995C7.75024 9.19887 7.82926 9.38963 7.96991 9.53028C8.11056 9.67094 8.30133 9.74995 8.50024 9.74995H10.2932L11.1232 12.404L9.69224 15.374C9.1496 15.1212 8.55716 14.9935 7.95859 15.0002C7.36002 15.0069 6.77059 15.1479 6.23375 15.4127C5.69691 15.6776 5.22636 16.0595 4.85679 16.5304C4.48721 17.0013 4.22804 17.5491 4.09838 18.1335C3.96872 18.7179 3.97187 19.324 4.10761 19.907C4.24335 20.49 4.50822 21.0351 4.88267 21.5021C5.25713 21.9692 5.73163 22.3462 6.2712 22.6054C6.81076 22.8647 7.40163 22.9995 8.00024 23Z" fill="#F0CB35"/>
<path fill-rule="evenodd" clip-rule="evenodd" d="M18.5 21.5C19.5609 21.5 20.5783 21.0786 21.3284 20.3284C22.0786 19.5783 22.5 18.5609 22.5 17.5C22.5 16.4391 22.0786 15.4217 21.3284 14.6716C20.5783 13.9214 19.5609 13.5 18.5 13.5C17.4391 13.5 16.4217 13.9214 15.6716 14.6716C14.9214 15.4217 14.5 16.4391 14.5 17.5C14.5 18.5609 14.9214 19.5783 15.6716 20.3284C16.4217 21.0786 17.4391 21.5 18.5 21.5ZM18.5 14.5C19.2956 14.5 20.0587 14.8161 20.6213 15.3787C21.1839 15.9413 21.5 16.7044 21.5 17.5C21.5 18.2956 21.1839 19.0587 20.6213 19.6213C20.0587 20.1839 19.2956 20.5 18.5 20.5C17.7044 20.5 16.9413 20.1839 16.3787 19.6213C15.8161 19.0587 15.5 18.2956 15.5 17.5C15.5 16.7044 15.8161 15.9413 16.3787 15.3787C16.9413 14.8161 17.7044 14.5 18.5 14.5ZM7.5 21.5C8.56087 21.5 9.57828 21.0786 10.3284 20.3284C11.0786 19.5783 11.5 18.5609 11.5 17.5C11.5 16.4391 11.0786 15.4217 10.3284 14.6716C9.57828 13.9214 8.56087 13.5 7.5 13.5C6.43913 13.5 5.42172 13.9214 4.67157 14.6716C3.92143 15.4217 3.5 16.4391 3.5 17.5C3.5 18.5609 3.92143 19.5783 4.67157 20.3284C5.42172 21.0786 6.43913 21.5 7.5 21.5ZM7.5 14.5C8.29565 14.5 9.05871 14.8161 9.62132 15.3787C10.1839 15.9413 10.5 16.7044 10.5 17.5C10.5 18.2956 10.1839 19.0587 9.62132 19.6213C9.05871 20.1839 8.29565 20.5 7.5 20.5C6.70435 20.5 5.94129 20.1839 5.37868 19.6213C4.81607 19.0587 4.5 18.2956 4.5 17.5C4.5 16.7044 4.81607 15.9413 5.37868 15.3787C5.94129 14.8161 6.70435 14.5 7.5 14.5Z" fill="#F0CB35"/>
<path d="M8 8C7.86739 8 7.74021 7.94732 7.64645 7.85355C7.55268 7.75979 7.5 7.63261 7.5 7.5C7.5 7.36739 7.55268 7.24021 7.64645 7.14645C7.74021 7.05268 7.86739 7 8 7H12C12.1326 7 12.2598 7.05268 12.3536 7.14645C12.4473 7.24021 12.5 7.36739 12.5 7.5C12.5 7.63261 12.4473 7.75979 12.3536 7.85355C12.2598 7.94732 12.1326 8 12 8H8Z" fill="#F0CB35"/>
<path fill-rule="evenodd" clip-rule="evenodd" d="M13.475 17.343L13.44 17.239L17.424 10.884C17.471 10.8083 17.497 10.7215 17.4992 10.6324C17.5014 10.5433 17.4798 10.4553 17.4365 10.3774C17.3933 10.2995 17.33 10.2345 17.2533 10.1893C17.1765 10.144 17.0891 10.1201 17 10.12H11.09L10.173 7.34401C10.1313 7.21803 10.0414 7.11375 9.92283 7.05412C9.80431 6.99448 9.66695 6.98437 9.54097 7.02601C9.41499 7.06765 9.31071 7.15762 9.25108 7.27615C9.19144 7.39467 9.18133 7.53203 9.22297 7.65801L10.295 10.903L7.05497 17.274C7.01638 17.3502 6.99793 17.4349 7.00139 17.5202C7.00484 17.6055 7.03007 17.6885 7.07468 17.7613C7.1193 17.8341 7.1818 17.8942 7.25625 17.936C7.33069 17.9778 7.4146 17.9998 7.49997 18H13C13.0791 18.0001 13.1571 17.9813 13.2276 17.9453C13.2981 17.9093 13.3591 17.8571 13.4054 17.793C13.4518 17.7288 13.4823 17.6546 13.4944 17.5764C13.5065 17.4981 13.4998 17.4182 13.475 17.343ZM8.31497 17H12.308L10.736 12.24L8.31497 17ZM11.419 11.119L13.033 16.006L16.096 11.119H11.419Z" fill="#F0CB35"/>
<path d="M16.5438 5.99901C16.4776 6.00635 16.4105 6.00037 16.3466 5.9814C16.2826 5.96244 16.2232 5.93088 16.1716 5.88858C16.1201 5.84628 16.0775 5.7941 16.0464 5.73511C16.0153 5.67611 15.9964 5.6115 15.9906 5.54506C15.9849 5.47863 15.9925 5.41172 16.013 5.34827C16.0335 5.28482 16.0665 5.22611 16.11 5.17561C16.1536 5.1251 16.2068 5.08381 16.2665 5.05417C16.3262 5.02453 16.3913 5.00713 16.4578 5.00301C20.1128 4.68701 21.9998 5.06401 21.9998 6.50001C21.9998 7.76501 21.0918 8.44601 19.5168 8.50001C19.4512 8.50224 19.3857 8.49152 19.3242 8.46845C19.2627 8.44539 19.2063 8.41043 19.1583 8.36558C19.0614 8.275 19.0044 8.14962 18.9998 8.01701C18.9953 7.8844 19.0437 7.75543 19.1343 7.65848C19.2249 7.56152 19.3502 7.50452 19.4828 7.50001C20.5748 7.46301 20.9998 7.14401 20.9998 6.50001C20.9998 6.02601 19.5548 5.73701 16.5428 5.99801" fill="#F0CB35"/>
<path d="M16.9931 5.41803L18.9931 17.418C19.1031 18.075 18.1161 18.24 18.0071 17.582L16.0071 5.58203C15.8971 4.92503 16.8841 4.76003 16.9931 5.41803Z" fill="#F0CB35"/>
<path fill-rule="evenodd" clip-rule="evenodd" d="M13 24.5C19.351 24.5 24.5 19.351 24.5 13C24.5 6.649 19.351 1.5 13 1.5C6.649 1.5 1.5 6.649 1.5 13C1.5 19.351 6.649 24.5 13 24.5ZM13 25.5C19.904 25.5 25.5 19.904 25.5 13C25.5 6.096 19.904 0.5 13 0.5C6.096 0.5 0.5 6.096 0.5 13C0.5 19.904 6.096 25.5 13 25.5Z" fill="#F0CB35"/>
</svg>
