<svg width="26" height="26" viewBox="0 0 26 26" fill="none" xmlns="http://www.w3.org/2000/svg">
<mask id="mask0_156434_16" style="mask-type:luminance" maskUnits="userSpaceOnUse" x="0" y="0" width="26" height="26">
<path d="M0 0H26V26H0V0Z" fill="white"/>
<path fill-rule="evenodd" clip-rule="evenodd" d="M18.5 21.5C19.5609 21.5 20.5783 21.0786 21.3284 20.3284C22.0786 19.5783 22.5 18.5609 22.5 17.5C22.5 16.4391 22.0786 15.4217 21.3284 14.6716C20.5783 13.9214 19.5609 13.5 18.5 13.5C17.4391 13.5 16.4217 13.9214 15.6716 14.6716C14.9214 15.4217 14.5 16.4391 14.5 17.5C14.5 18.5609 14.9214 19.5783 15.6716 20.3284C16.4217 21.0786 17.4391 21.5 18.5 21.5ZM18.5 14.5C19.2956 14.5 20.0587 14.8161 20.6213 15.3787C21.1839 15.9413 21.5 16.7044 21.5 17.5C21.5 18.2956 21.1839 19.0587 20.6213 19.6213C20.0587 20.1839 19.2956 20.5 18.5 20.5C17.7044 20.5 16.9413 20.1839 16.3787 19.6213C15.8161 19.0587 15.5 18.2956 15.5 17.5C15.5 16.7044 15.8161 15.9413 16.3787 15.3787C16.9413 14.8161 17.7044 14.5 18.5 14.5ZM7.5 21.5C8.56087 21.5 9.57828 21.0786 10.3284 20.3284C11.0786 19.5783 11.5 18.5609 11.5 17.5C11.5 16.4391 11.0786 15.4217 10.3284 14.6716C9.57828 13.9214 8.56087 13.5 7.5 13.5C6.43913 13.5 5.42172 13.9214 4.67157 14.6716C3.92143 15.4217 3.5 16.4391 3.5 17.5C3.5 18.5609 3.92143 19.5783 4.67157 20.3284C5.42172 21.0786 6.43913 21.5 7.5 21.5ZM7.5 14.5C8.29565 14.5 9.05871 14.8161 9.62132 15.3787C10.1839 15.9413 10.5 16.7044 10.5 17.5C10.5 18.2956 10.1839 19.0587 9.62132 19.6213C9.05871 20.1839 8.29565 20.5 7.5 20.5C6.70435 20.5 5.94129 20.1839 5.37868 19.6213C4.81607 19.0587 4.5 18.2956 4.5 17.5C4.5 16.7044 4.81607 15.9413 5.37868 15.3787C5.94129 14.8161 6.70435 14.5 7.5 14.5Z" fill="black"/>
<path d="M8 8C7.86739 8 7.74021 7.94732 7.64645 7.85355C7.55268 7.75979 7.5 7.63261 7.5 7.5C7.5 7.36739 7.55268 7.24021 7.64645 7.14645C7.74021 7.05268 7.86739 7 8 7H12C12.1326 7 12.2598 7.05268 12.3536 7.14645C12.4473 7.24021 12.5 7.36739 12.5 7.5C12.5 7.63261 12.4473 7.75979 12.3536 7.85355C12.2598 7.94732 12.1326 8 12 8H8Z" fill="black"/>
<path fill-rule="evenodd" clip-rule="evenodd" d="M13.475 17.343L13.44 17.239L17.424 10.884C17.471 10.8083 17.497 10.7215 17.4992 10.6324C17.5014 10.5433 17.4798 10.4553 17.4365 10.3774C17.3933 10.2995 17.33 10.2345 17.2533 10.1893C17.1765 10.144 17.0891 10.1201 17 10.12H11.09L10.173 7.34401C10.1313 7.21803 10.0414 7.11375 9.92283 7.05412C9.80431 6.99448 9.66695 6.98437 9.54097 7.02601C9.41499 7.06765 9.31071 7.15762 9.25108 7.27615C9.19144 7.39467 9.18133 7.53203 9.22297 7.65801L10.295 10.903L7.05497 17.274C7.01638 17.3502 6.99793 17.4349 7.00139 17.5202C7.00484 17.6055 7.03007 17.6885 7.07468 17.7613C7.1193 17.8341 7.1818 17.8942 7.25625 17.936C7.33069 17.9778 7.4146 17.9998 7.49997 18H13C13.0791 18.0001 13.1571 17.9813 13.2276 17.9453C13.2981 17.9093 13.3591 17.8571 13.4054 17.793C13.4518 17.7288 13.4823 17.6546 13.4944 17.5764C13.5065 17.4981 13.4998 17.4182 13.475 17.343ZM8.31497 17H12.308L10.736 12.24L8.31497 17ZM11.419 11.119L13.033 16.006L16.096 11.119H11.419Z" fill="black"/>
<path d="M16.5438 5.99901C16.4776 6.00635 16.4105 6.00037 16.3466 5.9814C16.2826 5.96244 16.2232 5.93088 16.1716 5.88858C16.1201 5.84628 16.0775 5.7941 16.0464 5.73511C16.0153 5.67611 15.9964 5.6115 15.9906 5.54506C15.9849 5.47863 15.9925 5.41172 16.013 5.34827C16.0335 5.28482 16.0665 5.22611 16.11 5.17561C16.1536 5.1251 16.2068 5.08381 16.2665 5.05417C16.3262 5.02453 16.3913 5.00713 16.4578 5.00301C20.1128 4.68701 21.9998 5.06401 21.9998 6.50001C21.9998 7.76501 21.0918 8.44601 19.5168 8.50001C19.4512 8.50224 19.3857 8.49152 19.3242 8.46845C19.2627 8.44539 19.2063 8.41043 19.1583 8.36558C19.0614 8.275 19.0044 8.14962 18.9998 8.01701C18.9953 7.8844 19.0437 7.75543 19.1343 7.65848C19.2249 7.56152 19.3502 7.50452 19.4828 7.50001C20.5748 7.46301 20.9998 7.14401 20.9998 6.50001C20.9998 6.02601 19.5548 5.73701 16.5428 5.99801" fill="black"/>
<path d="M16.9931 5.41803L18.9931 17.418C19.1031 18.075 18.1161 18.24 18.0071 17.582L16.0071 5.58203C15.8971 4.92503 16.8841 4.76003 16.9931 5.41803Z" fill="black"/>
</mask>
<g mask="url(#mask0_156434_16)">
<path d="M13 26C20.1797 26 26 20.1797 26 13C26 5.8203 20.1797 0 13 0C5.8203 0 0 5.8203 0 13C0 20.1797 5.8203 26 13 26Z" fill="#F0CB35"/>
</g>
</svg>
